# xmcd
#
# Track frame offsets:
#	150
#	13865
#	31159
#	45157
#	57739
#	71081
#	87714
#	104037
#	115955
#	126290
#	139396
#	152864
#
# Disc length: 2315 seconds
#
# Revision: 0
# Processed by: cddbd v1.5.1PL0 Copyright (c) Steve Scherf et al.
# Submitted via: audiograbber 1.83.01
#
DISCID=b409090c
DTITLE=Barry White - The Love Album
DYEAR=2003
DGENRE=Soul
TTITLE0=Ive Got The Whole World To Hold Me Up
TTITLE1=Your Heart And Soul
TTITLE2=Under The Influence Of Love
TTITLE3=All In The Run Of Love
TTITLE4=Out Of The Shadows Of Love
TTITLE5=Long Black Veil
TTITLE6=Come On In Love
TTITLE7=Where Can I Turn To
TTITLE8=I Owe It All To You
TTITLE9=Fragile, Handle With Care
TTITLE10=My Buddy
TTITLE11=Ive Got The Whole World To Hold Me Up (Big Man Remix)
EXTD=Barry White. ZYX Music CMbH Compilation
EXTT0=
EXTT1=
EXTT2=
EXTT3=
EXTT4=
EXTT5=
EXTT6=
EXTT7=
EXTT8=
EXTT9=
EXTT10=
EXTT11=
PLAYORDER=
